<svg width="267" height="32" viewBox="0 0 267 32" fill="none" xmlns="http://www.w3.org/2000/svg">
<path d="M7.96438 25.32C6.49238 25.32 5.26571 25.1173 4.28438 24.712C3.32438 24.2853 2.55638 23.7093 1.98038 22.984C1.40438 22.2587 0.999042 21.416 0.764375 20.456C0.529708 19.4747 0.412375 18.4293 0.412375 17.32C0.412375 16.04 0.561708 14.792 0.860375 13.576C1.18038 12.3387 1.71371 11.24 2.46038 10.28C3.20704 9.32 4.18838 8.552 5.40438 7.976C6.64171 7.37867 8.17771 7.08 10.0124 7.08C12.7004 7.08 14.6204 7.74133 15.7724 9.064C16.9457 10.3653 17.5324 12.2 17.5324 14.568C17.5324 15.2293 17.479 15.9653 17.3724 16.776C17.287 17.5653 17.1057 18.3547 16.8284 19.144C16.5724 19.9333 16.2097 20.7013 15.7404 21.448C15.2924 22.1947 14.7164 22.856 14.0124 23.432C13.3084 24.008 12.455 24.4667 11.4524 24.808C10.471 25.1493 9.30838 25.32 7.96438 25.32ZM9.46838 11.336C8.65771 11.336 8.00704 11.5493 7.51638 11.976C7.04704 12.3813 6.68438 12.8827 6.42838 13.48C6.19371 14.056 6.03371 14.6747 5.94838 15.336C5.88438 15.976 5.85238 16.52 5.85238 16.968C5.85238 18.376 6.07638 19.4107 6.52438 20.072C6.97238 20.7333 7.61238 21.064 8.44438 21.064C9.19104 21.064 9.79904 20.8293 10.2684 20.36C10.759 19.8907 11.1324 19.3253 11.3884 18.664C11.6657 18.0027 11.847 17.3093 11.9324 16.584C12.039 15.8587 12.0924 15.2507 12.0924 14.76C12.0924 13.6933 11.8897 12.8613 11.4844 12.264C11.1004 11.6453 10.4284 11.336 9.46838 11.336ZM30.2574 15.048C30.1294 15.048 29.98 15.048 29.8094 15.048C29.66 15.0267 29.5107 15.0053 29.3614 14.984C29.212 14.9413 29.084 14.8987 28.9774 14.856C28.8707 14.792 28.8174 14.7173 28.8174 14.632C28.8174 14.3547 28.828 14.0987 28.8494 13.864C28.8707 13.6293 28.8814 13.384 28.8814 13.128C28.8814 12.6587 28.8174 12.2747 28.6894 11.976C28.5614 11.6773 28.3054 11.528 27.9214 11.528C27.324 11.528 26.8227 11.9227 26.4174 12.712C26.0334 13.48 25.788 14.6427 25.6814 16.2C25.6387 16.8827 25.5747 17.6613 25.4894 18.536C25.4254 19.3893 25.3614 20.2213 25.2974 21.032C25.2334 21.8213 25.18 22.5253 25.1374 23.144C25.0947 23.7627 25.0734 24.168 25.0734 24.36C25.0734 24.5733 24.9987 24.7333 24.8494 24.84C24.7 24.9467 24.54 25 24.3694 25H23.2174C22.556 25 22.012 24.936 21.5854 24.808C21.18 24.6587 20.8494 24.456 20.5934 24.2C20.3587 23.944 20.188 23.6347 20.0814 23.272C19.996 22.888 19.9534 22.4507 19.9534 21.96C19.9534 21.64 19.964 21.192 19.9854 20.616C20.028 20.0187 20.092 19.208 20.1774 18.184C20.2627 17.1387 20.3587 15.8267 20.4654 14.248C20.5934 12.648 20.7427 10.6747 20.9134 8.328C20.956 7.70933 21.18 7.4 21.5854 7.4H22.8334C23.4307 7.4 23.932 7.464 24.3374 7.592C24.7427 7.72 25.0734 7.90133 25.3294 8.136C25.5854 8.34933 25.7667 8.60533 25.8734 8.904C26.0014 9.20267 26.0867 9.512 26.1294 9.832C26.3854 9.34133 26.684 8.92533 27.0254 8.584C27.388 8.22133 27.7614 7.93333 28.1454 7.72C28.5294 7.48533 28.924 7.32533 29.3294 7.24C29.7347 7.13333 30.108 7.08 30.4494 7.08C30.8547 7.08 31.26 7.15467 31.6654 7.304C32.092 7.45333 32.476 7.67733 32.8174 7.976C33.1587 8.27467 33.4254 8.65867 33.6174 9.128C33.8307 9.59733 33.9374 10.152 33.9374 10.792C33.9374 11.368 33.852 11.912 33.6814 12.424C33.5107 12.936 33.2654 13.3947 32.9454 13.8C32.6254 14.184 32.2307 14.4933 31.7614 14.728C31.3134 14.9413 30.812 15.048 30.2574 15.048ZM34.1489 21.064C34.1489 19.144 35.0129 17.64 36.7409 16.552C38.4689 15.464 41.0182 14.8773 44.3889 14.792C44.4102 14.5573 44.4209 14.3653 44.4209 14.216C44.4422 14.0453 44.4529 13.8427 44.4529 13.608C44.4529 12.9253 44.3249 12.3813 44.0689 11.976C43.8129 11.5707 43.2795 11.368 42.4689 11.368C42.0209 11.368 41.6582 11.432 41.3809 11.56C41.1035 11.688 40.8795 11.8693 40.7089 12.104C40.5382 12.3173 40.3995 12.584 40.2929 12.904C40.1862 13.224 40.0902 13.576 40.0049 13.96C39.9622 14.152 39.8662 14.28 39.7169 14.344C39.5675 14.3867 39.3329 14.408 39.0129 14.408C36.8369 14.408 35.7489 13.5867 35.7489 11.944C35.7489 11.2827 35.8982 10.6533 36.1969 10.056C36.5169 9.45867 36.9755 8.94667 37.5729 8.52C38.1915 8.072 38.9595 7.72 39.8769 7.464C40.7942 7.208 41.8609 7.08 43.0769 7.08C45.4449 7.08 47.1622 7.57067 48.2289 8.552C49.2955 9.53333 49.8289 10.92 49.8289 12.712C49.8289 12.9467 49.7969 13.3733 49.7329 13.992C49.6902 14.5893 49.6262 15.2293 49.5409 15.912C49.4769 16.5733 49.4129 17.2027 49.3489 17.8C49.3062 18.3973 49.2849 18.8133 49.2849 19.048C49.2849 19.5813 49.3809 19.9653 49.5729 20.2C49.7649 20.4133 49.9782 20.5627 50.2129 20.648C50.4689 20.7333 50.6929 20.7973 50.8849 20.84C51.0769 20.8827 51.1729 20.9893 51.1729 21.16C51.1729 21.6293 51.1089 22.1093 50.9809 22.6C50.8529 23.0907 50.6395 23.5387 50.3409 23.944C50.0635 24.3493 49.6689 24.68 49.1569 24.936C48.6662 25.192 48.0582 25.32 47.3329 25.32C46.3089 25.32 45.5409 25.0747 45.0289 24.584C44.5169 24.0933 44.1755 23.4107 44.0049 22.536C43.4929 23.2827 42.8209 23.9333 41.9889 24.488C41.1782 25.0427 40.1115 25.32 38.7889 25.32C38.1489 25.32 37.5409 25.2453 36.9649 25.096C36.4102 24.9467 35.9195 24.7013 35.4929 24.36C35.0875 24.0187 34.7569 23.5813 34.5009 23.048C34.2662 22.4933 34.1489 21.832 34.1489 21.064ZM44.1009 17.416C43.5462 17.416 43.0022 17.4587 42.4689 17.544C41.9355 17.6293 41.4555 17.768 41.0289 17.96C40.6235 18.1307 40.2929 18.3653 40.0369 18.664C39.7809 18.9627 39.6529 19.3253 39.6529 19.752C39.6529 20.2427 39.8022 20.584 40.1009 20.776C40.4209 20.968 40.7622 21.064 41.1249 21.064C41.4662 21.064 41.8075 20.9893 42.1489 20.84C42.4902 20.6907 42.7889 20.4667 43.0449 20.168C43.3222 19.848 43.5569 19.464 43.7489 19.016C43.9409 18.568 44.0582 18.0347 44.1009 17.416ZM64.0521 22.184C64.0521 21.7147 64.0841 21.1067 64.1481 20.36C64.2335 19.592 64.3081 18.792 64.3721 17.96C64.4575 17.1067 64.5321 16.2853 64.5961 15.496C64.6815 14.7067 64.7241 14.0453 64.7241 13.512C64.7241 12.9573 64.5855 12.4667 64.3081 12.04C64.0521 11.592 63.5401 11.368 62.7721 11.368C62.0255 11.368 61.4068 11.5493 60.9161 11.912C60.4255 12.2747 60.0095 12.936 59.6681 13.896C59.3481 14.856 59.0815 16.1787 58.8681 17.864C58.6548 19.5493 58.4521 21.7147 58.2601 24.36C58.2388 24.616 58.1855 24.7867 58.1001 24.872C58.0148 24.9573 57.8335 25 57.5561 25H56.4041C55.7428 25 55.1988 24.936 54.7721 24.808C54.3668 24.6587 54.0361 24.456 53.7801 24.2C53.5455 23.944 53.3748 23.6347 53.2681 23.272C53.1828 22.888 53.1401 22.4507 53.1401 21.96C53.1401 21.64 53.1508 21.192 53.1721 20.616C53.2148 20.0187 53.2788 19.208 53.3641 18.184C53.4495 17.1387 53.5455 15.8267 53.6521 14.248C53.7801 12.648 53.9295 10.6747 54.1001 8.328C54.1215 7.85867 54.1748 7.58133 54.2601 7.496C54.3241 7.432 54.4948 7.4 54.7721 7.4H56.0201C56.6601 7.4 57.1828 7.47467 57.5881 7.624C58.0148 7.77333 58.3561 7.976 58.6121 8.232C58.8681 8.46667 59.0495 8.75467 59.1561 9.096C59.2628 9.416 59.3268 9.74667 59.3481 10.088C60.0095 8.95733 60.7668 8.17867 61.6201 7.752C62.4735 7.304 63.5401 7.08 64.8201 7.08C65.7161 7.08 66.4948 7.176 67.1561 7.368C67.8175 7.56 68.3615 7.89067 68.7881 8.36C69.2361 8.808 69.5668 9.40533 69.7801 10.152C69.9935 10.8773 70.1001 11.784 70.1001 12.872C70.1001 13.2133 70.0788 13.704 70.0361 14.344C69.9935 14.984 69.9401 15.688 69.8761 16.456C69.8121 17.2027 69.7375 17.992 69.6521 18.824C69.5881 19.6347 69.5241 20.392 69.4601 21.096C69.3961 21.8 69.3428 22.4187 69.3001 22.952C69.2575 23.4853 69.2361 23.8373 69.2361 24.008C69.2361 24.4773 69.1828 24.7653 69.0761 24.872C68.9695 24.9573 68.7348 25 68.3721 25H67.3481C66.6655 25 66.1108 24.936 65.6841 24.808C65.2575 24.68 64.9268 24.4987 64.6921 24.264C64.4575 24.0293 64.2868 23.7413 64.1801 23.4C64.0948 23.0373 64.0521 22.632 64.0521 22.184ZM83.4166 21.224C82.8833 22.184 82.2326 22.8987 81.4646 23.368C80.6966 23.816 79.7366 24.04 78.5846 24.04C77.71 24.04 76.91 23.9013 76.1846 23.624C75.4593 23.3467 74.8406 22.9093 74.3286 22.312C73.8166 21.7147 73.4113 20.968 73.1126 20.072C72.8353 19.1547 72.6966 18.0667 72.6966 16.808C72.6966 15.784 72.8033 14.7067 73.0166 13.576C73.23 12.424 73.614 11.368 74.1686 10.408C74.7446 9.448 75.5233 8.65867 76.5046 8.04C77.486 7.4 78.7446 7.08 80.2806 7.08C80.9206 7.08 81.4646 7.15467 81.9126 7.304C82.382 7.432 82.7766 7.61333 83.0966 7.848C83.438 8.08267 83.7046 8.36 83.8966 8.68C84.11 9 84.27 9.34133 84.3766 9.704C84.3766 9.72533 84.3766 9.65067 84.3766 9.48C84.398 9.288 84.4193 9.07467 84.4406 8.84C84.462 8.60533 84.4726 8.38133 84.4726 8.168C84.494 7.93333 84.5046 7.784 84.5046 7.72C84.526 7.50667 84.6646 7.4 84.9206 7.4H86.3926C87.502 7.4 88.302 7.63467 88.7926 8.104C89.3046 8.552 89.5606 9.416 89.5606 10.696C89.5606 10.8667 89.55 11.2613 89.5286 11.88C89.5073 12.4773 89.4646 13.2027 89.4006 14.056C89.358 14.9093 89.294 15.8587 89.2086 16.904C89.1233 17.928 89.0273 18.9627 88.9206 20.008C88.814 21.0533 88.6966 22.056 88.5686 23.016C88.4406 23.976 88.302 24.8187 88.1526 25.544C88.0033 26.2693 87.7473 26.9733 87.3846 27.656C87.022 28.3387 86.51 28.9467 85.8486 29.48C85.1873 30.0133 84.334 30.44 83.2886 30.76C82.2646 31.08 81.006 31.24 79.5126 31.24C78.382 31.24 77.39 31.1333 76.5366 30.92C75.7046 30.7067 75.0113 30.4187 74.4566 30.056C73.902 29.7147 73.4753 29.32 73.1766 28.872C72.8993 28.424 72.7606 27.976 72.7606 27.528C72.7606 27.1227 72.846 26.7707 73.0166 26.472C73.1873 26.1733 73.4113 25.928 73.6886 25.736C73.966 25.544 74.2646 25.3947 74.5846 25.288C74.926 25.2027 75.246 25.16 75.5446 25.16C75.9073 25.16 76.174 25.2667 76.3446 25.48C76.5153 25.6933 76.7073 25.928 76.9206 26.184C77.134 26.4613 77.4326 26.7067 77.8166 26.92C78.2006 27.1333 78.798 27.24 79.6086 27.24C81.0166 27.24 81.998 26.7173 82.5526 25.672C83.1286 24.648 83.4166 23.1653 83.4166 21.224ZM80.7286 19.784C81.4966 19.784 82.094 19.6027 82.5206 19.24C82.9686 18.8773 83.31 18.44 83.5446 17.928C83.7793 17.416 83.9286 16.8827 83.9926 16.328C84.0566 15.7733 84.0886 15.2933 84.0886 14.888C84.0886 13.608 83.886 12.7013 83.4806 12.168C83.0966 11.6133 82.51 11.336 81.7206 11.336C80.9313 11.336 80.3126 11.5493 79.8646 11.976C79.4166 12.4027 79.0753 12.9147 78.8406 13.512C78.6273 14.088 78.4886 14.6747 78.4246 15.272C78.3606 15.848 78.3286 16.296 78.3286 16.616C78.3286 17.6827 78.51 18.4827 78.8726 19.016C79.2353 19.528 79.854 19.784 80.7286 19.784ZM98.5021 10.12C98.5021 10.568 98.4595 11.1973 98.3741 12.008C98.3101 12.8187 98.2355 13.6613 98.1501 14.536C98.0861 15.4107 98.0115 16.232 97.9261 17C97.8621 17.768 97.8301 18.3227 97.8301 18.664C97.8301 19.4107 98.0115 19.9973 98.3741 20.424C98.7581 20.8293 99.2808 21.032 99.9421 21.032C100.518 21.032 100.998 20.808 101.382 20.36C101.787 19.8907 102.107 19.2933 102.342 18.568C102.598 17.8213 102.801 16.9787 102.95 16.04C103.099 15.1013 103.206 14.152 103.27 13.192C103.355 12.232 103.419 11.304 103.462 10.408C103.526 9.49067 103.59 8.70133 103.654 8.04C103.675 7.86933 103.739 7.72 103.846 7.592C103.953 7.464 104.123 7.4 104.358 7.4H105.51C106.171 7.4 106.705 7.47467 107.11 7.624C107.537 7.752 107.867 7.944 108.102 8.2C108.358 8.456 108.529 8.776 108.614 9.16C108.721 9.52267 108.774 9.94933 108.774 10.44C108.774 10.76 108.753 11.2187 108.71 11.816C108.689 12.392 108.635 13.2027 108.55 14.248C108.465 15.272 108.358 16.584 108.23 18.184C108.123 19.7627 107.985 21.7253 107.814 24.072C107.771 24.52 107.718 24.7867 107.654 24.872C107.611 24.9573 107.441 25 107.142 25H105.894C105.254 25 104.721 24.9253 104.294 24.776C103.889 24.6267 103.558 24.4347 103.302 24.2C103.046 23.9653 102.865 23.688 102.758 23.368C102.651 23.048 102.587 22.7173 102.566 22.376C102.246 22.9307 101.883 23.4 101.478 23.784C101.094 24.168 100.689 24.4773 100.262 24.712C99.8355 24.9253 99.3981 25.0747 98.9501 25.16C98.5021 25.2667 98.0648 25.32 97.6381 25.32C96.8275 25.32 96.1021 25.192 95.4621 24.936C94.8221 24.6587 94.2781 24.296 93.8301 23.848C93.4035 23.4 93.0728 22.8667 92.8381 22.248C92.6035 21.6293 92.4861 20.968 92.4861 20.264C92.4861 19.9867 92.4968 19.5387 92.5181 18.92C92.5608 18.28 92.6035 17.5653 92.6461 16.776C92.7101 15.9867 92.7741 15.1547 92.8381 14.28C92.9021 13.384 92.9555 12.5413 92.9981 11.752C93.0621 10.9627 93.1155 10.2693 93.1581 9.672C93.2221 9.07467 93.2648 8.648 93.2861 8.392C93.3288 8.008 93.4141 7.752 93.5421 7.624C93.6701 7.47467 93.8835 7.4 94.1821 7.4H95.2061C95.8675 7.4 96.4115 7.464 96.8381 7.592C97.2648 7.72 97.5955 7.90133 97.8301 8.136C98.0861 8.37067 98.2568 8.65867 98.3421 9C98.4488 9.32 98.5021 9.69333 98.5021 10.12ZM118.458 11.72C118.394 12.5307 118.319 13.3307 118.234 14.12C118.17 14.9093 118.106 15.656 118.042 16.36C117.978 17.064 117.924 17.6933 117.882 18.248C117.86 18.8027 117.85 19.2293 117.85 19.528C117.85 20.0827 117.914 20.456 118.042 20.648C118.17 20.8187 118.383 20.904 118.682 20.904C118.916 20.904 119.119 20.8613 119.29 20.776C119.46 20.6907 119.62 20.5947 119.77 20.488C119.919 20.3813 120.047 20.2853 120.154 20.2C120.282 20.1147 120.42 20.072 120.57 20.072C120.719 20.072 120.858 20.1573 120.986 20.328C121.114 20.4987 121.178 20.8933 121.178 21.512C121.178 22.6853 120.858 23.6133 120.218 24.296C119.578 24.9787 118.479 25.32 116.922 25.32C115.386 25.32 114.244 24.968 113.498 24.264C112.772 23.5387 112.41 22.44 112.41 20.968C112.41 20.648 112.42 20.2747 112.442 19.848C112.484 19.4 112.538 18.824 112.602 18.12C112.666 17.416 112.74 16.552 112.826 15.528C112.932 14.504 113.039 13.2347 113.146 11.72H111.45C111.279 11.72 111.172 11.688 111.13 11.624C111.108 11.5387 111.098 11.4213 111.098 11.272L111.194 9.64C111.215 9.36267 111.247 9.096 111.29 8.84C111.354 8.56267 111.46 8.31733 111.61 8.104C111.78 7.89067 112.015 7.72 112.314 7.592C112.612 7.464 113.007 7.4 113.498 7.4C113.647 7.016 113.818 6.55733 114.01 6.024C114.202 5.49067 114.394 4.97867 114.586 4.488C114.778 3.976 114.959 3.54933 115.13 3.208C115.322 2.86667 115.492 2.696 115.642 2.696H116.57C117.466 2.696 118.084 2.97333 118.426 3.528C118.767 4.08267 118.938 4.744 118.938 5.512C118.938 5.93867 118.906 6.568 118.842 7.4H122.202C122.543 7.4 122.714 7.54933 122.714 7.848L122.586 9.576C122.543 10.216 122.362 10.7387 122.042 11.144C121.743 11.528 121.114 11.72 120.154 11.72H118.458ZM123.399 21.064C123.399 19.144 124.263 17.64 125.991 16.552C127.719 15.464 130.268 14.8773 133.639 14.792C133.66 14.5573 133.671 14.3653 133.671 14.216C133.692 14.0453 133.703 13.8427 133.703 13.608C133.703 12.9253 133.575 12.3813 133.319 11.976C133.063 11.5707 132.53 11.368 131.719 11.368C131.271 11.368 130.908 11.432 130.631 11.56C130.354 11.688 130.13 11.8693 129.959 12.104C129.788 12.3173 129.65 12.584 129.543 12.904C129.436 13.224 129.34 13.576 129.255 13.96C129.212 14.152 129.116 14.28 128.967 14.344C128.818 14.3867 128.583 14.408 128.263 14.408C126.087 14.408 124.999 13.5867 124.999 11.944C124.999 11.2827 125.148 10.6533 125.447 10.056C125.767 9.45867 126.226 8.94667 126.823 8.52C127.442 8.072 128.21 7.72 129.127 7.464C130.044 7.208 131.111 7.08 132.327 7.08C134.695 7.08 136.412 7.57067 137.479 8.552C138.546 9.53333 139.079 10.92 139.079 12.712C139.079 12.9467 139.047 13.3733 138.983 13.992C138.94 14.5893 138.876 15.2293 138.791 15.912C138.727 16.5733 138.663 17.2027 138.599 17.8C138.556 18.3973 138.535 18.8133 138.535 19.048C138.535 19.5813 138.631 19.9653 138.823 20.2C139.015 20.4133 139.228 20.5627 139.463 20.648C139.719 20.7333 139.943 20.7973 140.135 20.84C140.327 20.8827 140.423 20.9893 140.423 21.16C140.423 21.6293 140.359 22.1093 140.231 22.6C140.103 23.0907 139.89 23.5387 139.591 23.944C139.314 24.3493 138.919 24.68 138.407 24.936C137.916 25.192 137.308 25.32 136.583 25.32C135.559 25.32 134.791 25.0747 134.279 24.584C133.767 24.0933 133.426 23.4107 133.255 22.536C132.743 23.2827 132.071 23.9333 131.239 24.488C130.428 25.0427 129.362 25.32 128.039 25.32C127.399 25.32 126.791 25.2453 126.215 25.096C125.66 24.9467 125.17 24.7013 124.743 24.36C124.338 24.0187 124.007 23.5813 123.751 23.048C123.516 22.4933 123.399 21.832 123.399 21.064ZM133.351 17.416C132.796 17.416 132.252 17.4587 131.719 17.544C131.186 17.6293 130.706 17.768 130.279 17.96C129.874 18.1307 129.543 18.3653 129.287 18.664C129.031 18.9627 128.903 19.3253 128.903 19.752C128.903 20.2427 129.052 20.584 129.351 20.776C129.671 20.968 130.012 21.064 130.375 21.064C130.716 21.064 131.058 20.9893 131.399 20.84C131.74 20.6907 132.039 20.4667 132.295 20.168C132.572 19.848 132.807 19.464 132.999 19.016C133.191 18.568 133.308 18.0347 133.351 17.416ZM153.302 22.184C153.302 21.7147 153.334 21.1067 153.398 20.36C153.483 19.592 153.558 18.792 153.622 17.96C153.707 17.1067 153.782 16.2853 153.846 15.496C153.931 14.7067 153.974 14.0453 153.974 13.512C153.974 12.9573 153.835 12.4667 153.558 12.04C153.302 11.592 152.79 11.368 152.022 11.368C151.275 11.368 150.657 11.5493 150.166 11.912C149.675 12.2747 149.259 12.936 148.918 13.896C148.598 14.856 148.331 16.1787 148.118 17.864C147.905 19.5493 147.702 21.7147 147.51 24.36C147.489 24.616 147.435 24.7867 147.35 24.872C147.265 24.9573 147.083 25 146.806 25H145.654C144.993 25 144.449 24.936 144.022 24.808C143.617 24.6587 143.286 24.456 143.03 24.2C142.795 23.944 142.625 23.6347 142.518 23.272C142.433 22.888 142.39 22.4507 142.39 21.96C142.39 21.64 142.401 21.192 142.422 20.616C142.465 20.0187 142.529 19.208 142.614 18.184C142.699 17.1387 142.795 15.8267 142.902 14.248C143.03 12.648 143.179 10.6747 143.35 8.328C143.371 7.85867 143.425 7.58133 143.51 7.496C143.574 7.432 143.745 7.4 144.022 7.4H145.27C145.91 7.4 146.433 7.47467 146.838 7.624C147.265 7.77333 147.606 7.976 147.862 8.232C148.118 8.46667 148.299 8.75467 148.406 9.096C148.513 9.416 148.577 9.74667 148.598 10.088C149.259 8.95733 150.017 8.17867 150.87 7.752C151.723 7.304 152.79 7.08 154.07 7.08C154.966 7.08 155.745 7.176 156.406 7.368C157.067 7.56 157.611 7.89067 158.038 8.36C158.486 8.808 158.817 9.40533 159.03 10.152C159.243 10.8773 159.35 11.784 159.35 12.872C159.35 13.2133 159.329 13.704 159.286 14.344C159.243 14.984 159.19 15.688 159.126 16.456C159.062 17.2027 158.987 17.992 158.902 18.824C158.838 19.6347 158.774 20.392 158.71 21.096C158.646 21.8 158.593 22.4187 158.55 22.952C158.507 23.4853 158.486 23.8373 158.486 24.008C158.486 24.4773 158.433 24.7653 158.326 24.872C158.219 24.9573 157.985 25 157.622 25H156.598C155.915 25 155.361 24.936 154.934 24.808C154.507 24.68 154.177 24.4987 153.942 24.264C153.707 24.0293 153.537 23.7413 153.43 23.4C153.345 23.0373 153.302 22.632 153.302 22.184ZM208.02 11.72C207.956 12.5307 207.881 13.3307 207.796 14.12C207.732 14.9093 207.668 15.656 207.604 16.36C207.54 17.064 207.487 17.6933 207.444 18.248C207.423 18.8027 207.412 19.2293 207.412 19.528C207.412 20.0827 207.476 20.456 207.604 20.648C207.732 20.8187 207.945 20.904 208.244 20.904C208.479 20.904 208.681 20.8613 208.852 20.776C209.023 20.6907 209.183 20.5947 209.332 20.488C209.481 20.3813 209.609 20.2853 209.716 20.2C209.844 20.1147 209.983 20.072 210.132 20.072C210.281 20.072 210.42 20.1573 210.548 20.328C210.676 20.4987 210.74 20.8933 210.74 21.512C210.74 22.6853 210.42 23.6133 209.78 24.296C209.14 24.9787 208.041 25.32 206.484 25.32C204.948 25.32 203.807 24.968 203.06 24.264C202.335 23.5387 201.972 22.44 201.972 20.968C201.972 20.648 201.983 20.2747 202.004 19.848C202.047 19.4 202.1 18.824 202.164 18.12C202.228 17.416 202.303 16.552 202.388 15.528C202.495 14.504 202.601 13.2347 202.708 11.72H201.012C200.841 11.72 200.735 11.688 200.692 11.624C200.671 11.5387 200.66 11.4213 200.66 11.272L200.756 9.64C200.777 9.36267 200.809 9.096 200.852 8.84C200.916 8.56267 201.023 8.31733 201.172 8.104C201.343 7.89067 201.577 7.72 201.876 7.592C202.175 7.464 202.569 7.4 203.06 7.4C203.209 7.016 203.38 6.55733 203.572 6.024C203.764 5.49067 203.956 4.97867 204.148 4.488C204.34 3.976 204.521 3.54933 204.692 3.208C204.884 2.86667 205.055 2.696 205.204 2.696H206.132C207.028 2.696 207.647 2.97333 207.988 3.528C208.329 4.08267 208.5 4.744 208.5 5.512C208.5 5.93867 208.468 6.568 208.404 7.4H211.764C212.105 7.4 212.276 7.54933 212.276 7.848L212.148 9.576C212.105 10.216 211.924 10.7387 211.604 11.144C211.305 11.528 210.676 11.72 209.716 11.72H208.02ZM217.217 25C216.556 25 216.012 24.936 215.585 24.808C215.18 24.6587 214.849 24.456 214.593 24.2C214.359 23.944 214.188 23.6347 214.081 23.272C213.996 22.888 213.953 22.4507 213.953 21.96C213.953 21.64 213.964 21.192 213.985 20.616C214.028 20.0187 214.092 19.208 214.177 18.184C214.263 17.1387 214.359 15.8267 214.465 14.248C214.593 12.648 214.743 10.6747 214.913 8.328C214.935 7.85867 214.988 7.58133 215.073 7.496C215.137 7.432 215.308 7.4 215.585 7.4H216.833C217.495 7.4 218.028 7.464 218.433 7.592C218.86 7.72 219.191 7.912 219.425 8.168C219.681 8.424 219.852 8.73333 219.937 9.096C220.044 9.45867 220.097 9.864 220.097 10.312C220.097 10.632 220.076 11.112 220.033 11.752C219.991 12.392 219.927 13.2667 219.841 14.376C219.777 15.464 219.681 16.8293 219.553 18.472C219.425 20.0933 219.265 22.056 219.073 24.36C219.052 24.616 218.999 24.7867 218.913 24.872C218.828 24.9573 218.647 25 218.369 25H217.217ZM214.945 3.624C214.945 2.77067 215.255 2.09867 215.873 1.608C216.492 1.11733 217.324 0.872 218.369 0.872C219.287 0.872 219.948 1.064 220.353 1.448C220.78 1.81067 220.993 2.30133 220.993 2.92C220.993 3.70933 220.695 4.37067 220.097 4.904C219.521 5.416 218.668 5.672 217.537 5.672C215.809 5.672 214.945 4.98933 214.945 3.624ZM228.457 19.24C228.393 20.2213 228.319 21.16 228.233 22.056C228.148 22.9307 228.084 23.6987 228.041 24.36C228.02 24.616 227.967 24.7867 227.881 24.872C227.796 24.9573 227.615 25 227.337 25H226.185C225.524 25 224.98 24.936 224.553 24.808C224.148 24.6587 223.817 24.456 223.561 24.2C223.327 23.944 223.156 23.6347 223.049 23.272C222.964 22.888 222.921 22.4507 222.921 21.96C222.921 21.64 222.932 21.192 222.953 20.616C222.996 20.0187 223.06 19.208 223.145 18.184C223.231 17.1387 223.327 15.8267 223.433 14.248C223.561 12.648 223.711 10.6747 223.881 8.328C223.903 7.85867 223.956 7.58133 224.041 7.496C224.105 7.432 224.276 7.4 224.553 7.4H225.801C226.441 7.4 226.964 7.47467 227.369 7.624C227.775 7.77333 228.105 7.96533 228.361 8.2C228.617 8.43467 228.799 8.712 228.905 9.032C229.012 9.352 229.076 9.68267 229.097 10.024C229.716 8.872 230.42 8.09333 231.209 7.688C231.999 7.28267 232.927 7.08 233.993 7.08C234.569 7.08 235.124 7.13333 235.657 7.24C236.191 7.34667 236.671 7.528 237.097 7.784C237.524 8.04 237.887 8.38133 238.185 8.808C238.484 9.21333 238.697 9.736 238.825 10.376C239.487 9.13867 240.212 8.28533 241.001 7.816C241.791 7.32533 242.783 7.08 243.977 7.08C244.639 7.08 245.268 7.15467 245.865 7.304C246.484 7.432 247.017 7.66667 247.465 8.008C247.913 8.34933 248.265 8.81867 248.521 9.416C248.799 9.992 248.937 10.7173 248.937 11.592C248.937 12.2533 248.905 13.064 248.841 14.024C248.777 14.984 248.703 16.0293 248.617 17.16C248.532 18.2693 248.436 19.4213 248.329 20.616C248.223 21.7893 248.137 22.92 248.073 24.008C248.052 24.2427 248.031 24.424 248.009 24.552C247.988 24.68 247.945 24.776 247.881 24.84C247.839 24.904 247.764 24.9467 247.657 24.968C247.551 24.9893 247.401 25 247.209 25H246.185C245.503 25 244.948 24.936 244.521 24.808C244.095 24.68 243.764 24.4987 243.529 24.264C243.295 24.0293 243.124 23.7413 243.017 23.4C242.932 23.0373 242.889 22.632 242.889 22.184C242.889 21.9067 242.9 21.512 242.921 21C242.964 20.488 243.007 19.9333 243.049 19.336C243.113 18.7387 243.167 18.12 243.209 17.48C243.273 16.84 243.327 16.2533 243.369 15.72C243.433 15.1653 243.476 14.6853 243.497 14.28C243.54 13.8747 243.561 13.608 243.561 13.48C243.561 12.9253 243.444 12.4347 243.209 12.008C242.996 11.5813 242.569 11.368 241.929 11.368C241.375 11.368 240.895 11.5493 240.489 11.912C240.084 12.2747 239.743 12.776 239.465 13.416C239.188 14.056 238.964 14.8133 238.793 15.688C238.623 16.5627 238.505 17.512 238.441 18.536C238.399 19.1973 238.345 19.9547 238.281 20.808C238.217 21.6613 238.143 22.728 238.057 24.008C238.036 24.2427 238.015 24.424 237.993 24.552C237.972 24.68 237.929 24.776 237.865 24.84C237.823 24.904 237.748 24.9467 237.641 24.968C237.535 24.9893 237.385 25 237.193 25H236.169C235.487 25 234.932 24.936 234.505 24.808C234.079 24.68 233.748 24.4987 233.513 24.264C233.279 24.0293 233.108 23.7413 233.001 23.4C232.916 23.0373 232.873 22.632 232.873 22.184C232.873 21.7573 232.905 21.1387 232.969 20.328C233.055 19.496 233.129 18.6427 233.193 17.768C233.279 16.872 233.353 16.0293 233.417 15.24C233.503 14.4293 233.545 13.8427 233.545 13.48C233.545 12.9253 233.428 12.4347 233.193 12.008C232.98 11.5813 232.553 11.368 231.913 11.368C231.337 11.368 230.847 11.5813 230.441 12.008C230.036 12.4347 229.695 13.0107 229.417 13.736C229.161 14.44 228.948 15.272 228.777 16.232C228.628 17.192 228.521 18.1947 228.457 19.24ZM259.188 25.32C258.25 25.32 257.311 25.2027 256.372 24.968C255.455 24.7333 254.623 24.328 253.876 23.752C253.151 23.176 252.554 22.408 252.084 21.448C251.615 20.488 251.38 19.2827 251.38 17.832C251.38 17.2987 251.423 16.6587 251.508 15.912C251.594 15.1653 251.754 14.3973 251.988 13.608C252.244 12.8187 252.586 12.04 253.012 11.272C253.46 10.4827 254.036 9.77867 254.74 9.16C255.444 8.54133 256.298 8.04 257.3 7.656C258.303 7.272 259.498 7.08 260.884 7.08C261.994 7.08 262.932 7.208 263.7 7.464C264.468 7.72 265.087 8.072 265.556 8.52C266.026 8.94667 266.367 9.448 266.58 10.024C266.794 10.6 266.9 11.2187 266.9 11.88C266.9 12.8613 266.698 13.6933 266.292 14.376C265.908 15.0587 265.396 15.6347 264.756 16.104C264.138 16.552 263.444 16.904 262.676 17.16C261.908 17.416 261.151 17.6187 260.404 17.768C259.658 17.896 258.964 17.9813 258.324 18.024C257.706 18.0453 257.226 18.056 256.884 18.056C256.884 18.4613 256.938 18.8667 257.044 19.272C257.172 19.656 257.354 19.9973 257.588 20.296C257.823 20.5947 258.132 20.84 258.516 21.032C258.9 21.224 259.37 21.32 259.924 21.32C260.479 21.32 260.906 21.2347 261.204 21.064C261.524 20.872 261.78 20.6693 261.972 20.456C262.164 20.2213 262.324 20.0187 262.452 19.848C262.602 19.656 262.794 19.56 263.028 19.56C263.135 19.56 263.316 19.592 263.572 19.656C263.85 19.6987 264.127 19.8053 264.404 19.976C264.682 20.1467 264.927 20.3813 265.14 20.68C265.354 20.9787 265.46 21.3627 265.46 21.832C265.46 22.4507 265.268 22.984 264.884 23.432C264.5 23.88 263.999 24.2427 263.38 24.52C262.783 24.7973 262.111 25 261.364 25.128C260.618 25.256 259.892 25.32 259.188 25.32ZM259.796 11.336C259.327 11.336 258.922 11.4747 258.58 11.752C258.26 12.008 257.983 12.3387 257.748 12.744C257.535 13.1493 257.364 13.5973 257.236 14.088C257.13 14.5787 257.044 15.048 256.98 15.496C258.303 15.4747 259.37 15.2507 260.18 14.824C261.012 14.3973 261.428 13.7893 261.428 13C261.428 12.5733 261.29 12.1893 261.012 11.848C260.756 11.5067 260.351 11.336 259.796 11.336Z" fill="#0C4984"/>
<path d="M169.371 25.32C167.899 25.32 166.672 25.1173 165.691 24.712C164.731 24.2853 163.963 23.7093 163.387 22.984C162.811 22.2587 162.405 21.416 162.171 20.456C161.936 19.4747 161.819 18.4293 161.819 17.32C161.819 16.04 161.968 14.792 162.267 13.576C162.587 12.3387 163.12 11.24 163.867 10.28C164.613 9.32 165.595 8.552 166.811 7.976C168.048 7.37867 169.584 7.08 171.419 7.08C174.107 7.08 176.027 7.74133 177.179 9.064C178.352 10.3653 178.939 12.2 178.939 14.568C178.939 15.2293 178.885 15.9653 178.779 16.776C178.693 17.5653 178.512 18.3547 178.235 19.144C177.979 19.9333 177.616 20.7013 177.147 21.448C176.699 22.1947 176.123 22.856 175.419 23.432C174.715 24.008 173.861 24.4667 172.859 24.808C171.877 25.1493 170.715 25.32 169.371 25.32ZM170.875 11.336C170.064 11.336 169.413 11.5493 168.923 11.976C168.453 12.3813 168.091 12.8827 167.835 13.48C167.6 14.056 167.44 14.6747 167.355 15.336C167.291 15.976 167.259 16.52 167.259 16.968C167.259 18.376 167.483 19.4107 167.931 20.072C168.379 20.7333 169.019 21.064 169.851 21.064C170.597 21.064 171.205 20.8293 171.675 20.36C172.165 19.8907 172.539 19.3253 172.795 18.664C173.072 18.0027 173.253 17.3093 173.339 16.584C173.445 15.8587 173.499 15.2507 173.499 14.76C173.499 13.6933 173.296 12.8613 172.891 12.264C172.507 11.6453 171.835 11.336 170.875 11.336ZM192.24 22.184C192.24 21.7147 192.272 21.1067 192.336 20.36C192.421 19.592 192.496 18.792 192.56 17.96C192.645 17.1067 192.72 16.2853 192.784 15.496C192.869 14.7067 192.912 14.0453 192.912 13.512C192.912 12.9573 192.773 12.4667 192.496 12.04C192.24 11.592 191.728 11.368 190.96 11.368C190.213 11.368 189.594 11.5493 189.104 11.912C188.613 12.2747 188.197 12.936 187.856 13.896C187.536 14.856 187.269 16.1787 187.056 17.864C186.842 19.5493 186.64 21.7147 186.448 24.36C186.426 24.616 186.373 24.7867 186.288 24.872C186.202 24.9573 186.021 25 185.744 25H184.592C183.93 25 183.386 24.936 182.96 24.808C182.554 24.6587 182.224 24.456 181.968 24.2C181.733 23.944 181.562 23.6347 181.456 23.272C181.37 22.888 181.328 22.4507 181.328 21.96C181.328 21.64 181.338 21.192 181.36 20.616C181.402 20.0187 181.466 19.208 181.552 18.184C181.637 17.1387 181.733 15.8267 181.84 14.248C181.968 12.648 182.117 10.6747 182.288 8.328C182.309 7.85867 182.362 7.58133 182.448 7.496C182.512 7.432 182.682 7.4 182.96 7.4H184.208C184.848 7.4 185.37 7.47467 185.776 7.624C186.202 7.77333 186.544 7.976 186.8 8.232C187.056 8.46667 187.237 8.75467 187.344 9.096C187.45 9.416 187.514 9.74667 187.536 10.088C188.197 8.95733 188.954 8.17867 189.808 7.752C190.661 7.304 191.728 7.08 193.008 7.08C193.904 7.08 194.682 7.176 195.344 7.368C196.005 7.56 196.549 7.89067 196.976 8.36C197.424 8.808 197.754 9.40533 197.968 10.152C198.181 10.8773 198.288 11.784 198.288 12.872C198.288 13.2133 198.266 13.704 198.224 14.344C198.181 14.984 198.128 15.688 198.064 16.456C198 17.2027 197.925 17.992 197.84 18.824C197.776 19.6347 197.712 20.392 197.648 21.096C197.584 21.8 197.53 22.4187 197.488 22.952C197.445 23.4853 197.424 23.8373 197.424 24.008C197.424 24.4773 197.37 24.7653 197.264 24.872C197.157 24.9573 196.922 25 196.56 25H195.536C194.853 25 194.298 24.936 193.872 24.808C193.445 24.68 193.114 24.4987 192.88 24.264C192.645 24.0293 192.474 23.7413 192.368 23.4C192.282 23.0373 192.24 22.632 192.24 22.184Z" fill="#66CEE8"/>
</svg>
